<svg id="Capa_1" enable-background="new 0 0 512 512" height="512" viewBox="0 0 512 512" width="2em" xmlns="http://www.w3.org/2000/svg"><g><g><path d="m478.968 189.935c0-13.659-11.115-24.774-24.774-24.774-12.288 0-22.437 9.018-24.37 20.761-24.832 23.849-57.294 37.046-91.83 37.046h-32.446c-13.659 0-24.774 11.115-24.774 24.774v33.032c0 13.659 11.115 24.774 24.774 24.774h1.635l16.516 74.323h39.655v-71.878c24.906 4.798 47.831 16.698 66.469 34.601 1.932 11.743 12.082 20.761 24.37 20.761 13.659 0 24.774-11.115 24.774-24.774v-33.866c18.82-3.84 33.032-20.513 33.032-40.456s-14.212-36.616-33.032-40.456v-33.868zm-132.129 49.119c30.291-1.767 58.83-12.494 82.581-31.001v112.417c-23.75-18.506-52.29-29.234-82.581-31.001zm-49.549 41.72v-8.258h16.516v-16.516h-16.516v-8.258c0-4.55 3.708-8.258 8.258-8.258h24.774v49.548h-24.774c-4.55 0-8.258-3.708-8.258-8.258zm49.549 82.581h-9.893l-12.85-57.806h13.89c2.973 0 5.905.239 8.844.429v57.377zm115.613-24.774c0 4.55-3.708 8.258-8.258 8.258s-8.258-3.708-8.258-8.258v-148.646c0-4.55 3.708-8.258 8.258-8.258s8.258 3.708 8.258 8.258zm33.032-74.323c0 10.752-6.929 19.836-16.516 23.255v-46.501c9.587 3.41 16.516 12.494 16.516 23.246z"/><path d="m57.806 477.035 106.892-64.132-106.892-64.132zm16.517-99.096 58.269 34.965-58.269 34.965z"/><path d="m495.484 429.419h-132.129v-16.516c0-9.109-7.407-16.516-16.516-16.516h-16.516c-9.109 0-16.516 7.407-16.516 16.516v16.516h-66.065c-9.109 0-16.516 7.407-16.516 16.516v16.516c0 9.109 7.407 16.516 16.516 16.516h66.065v16.516c0 9.109 7.407 16.516 16.516 16.516h16.516c9.109 0 16.516-7.408 16.516-16.516v-16.516h132.129c9.109 0 16.516-7.407 16.516-16.516v-16.516c0-9.108-7.408-16.516-16.516-16.516zm-247.742 33.033v-16.516h66.065v16.516zm82.581 33.032v-82.581h16.516l.008 82.581zm165.161-33.032h-132.129v-16.516h132.129z"/><path d="m355.097 132.129h8.258v13.097c0 10.991 8.943 19.935 19.935 19.935 5.326 0 10.331-2.073 14.097-5.838l27.194-27.194h29.613c13.659 0 24.774-11.115 24.774-24.774v-33.032c0-13.659-11.115-24.774-24.774-24.774h-99.097c-13.659 0-24.774 11.115-24.774 24.774v33.032c0 13.659 11.115 24.774 24.774 24.774zm-8.258-57.806c0-4.55 3.708-8.258 8.258-8.258h99.097c4.55 0 8.258 3.708 8.258 8.258v33.032c0 4.55-3.708 8.258-8.258 8.258h-36.451l-32.033 32.033c-1.965 1.974-5.838.363-5.838-2.42v-29.613h-24.774c-4.55 0-8.258-3.708-8.258-8.258v-33.032z"/><path d="m429.419 82.581h16.516v16.516h-16.516z"/><path d="m363.355 82.581h16.516v16.516h-16.516z"/><path d="m396.387 82.581h16.516v16.516h-16.516z"/><path d="m222.968 189.935v-8.258h-82.581v8.258c0 22.767 18.523 41.29 41.29 41.29s41.291-18.522 41.291-41.29zm-41.291 24.775c-10.769 0-19.951-6.904-23.362-16.516h46.716c-3.402 9.612-12.593 16.516-23.354 16.516z"/><path d="m156.903 165.161h16.516c0-18.217-14.815-33.032-33.032-33.032s-33.032 14.815-33.032 33.032h16.516c0-9.109 7.407-16.516 16.516-16.516s16.516 7.408 16.516 16.516z"/><path d="m222.968 148.645c9.109 0 16.516 7.407 16.516 16.516h16.516c0-18.217-14.815-33.032-33.032-33.032s-33.032 14.815-33.032 33.032h16.516c0-9.108 7.399-16.516 16.516-16.516z"/><path d="m289.032 379.871v-24.774c0-42.496-24.882-79.195-60.796-96.586 25.732-10.1 45.238-32.685 50.87-60.317h1.668c18.217 0 33.032-14.815 33.032-33.032 0-7.895-2.899-15.063-7.548-20.753 4.856-11.933 7.548-24.807 7.548-37.682v-6.772c0-55.114-44.841-99.955-99.955-99.955h-64.339c-55.122 0-99.964 44.841-99.964 99.956 0 14.542 3.394 28.903 9.505 42.075-5.863 5.971-9.505 14.13-9.505 23.131 0 18.217 14.815 33.032 33.032 33.032h1.66c5.624 27.59 25.08 50.159 50.762 60.284-23.742 11.47-42.892 31.521-53.009 56.915-46.5 8.133-81.993 48.713-81.993 97.51 0 54.644 44.453 99.097 99.097 99.097s99.097-44.453 99.097-99.097c0-11.594-2.106-22.685-5.781-33.032zm-16.516-24.774v8.258h-87.734c-10.067-17.342-25.22-31.315-43.429-39.953l34.816-26.112h11.016l42.215 31.661 5.871-47.03c22.529 16.55 37.245 43.141 37.245 73.176zm-120.559-85.785 10.554 17.59-15.69 11.768-3.245-25.955c2.724-1.272 5.523-2.412 8.381-3.403zm29.72-5.054c4.385 0 8.663.421 12.874 1.024l-9.29 15.492h-7.16l-9.332-15.55c4.229-.611 8.54-.966 12.908-.966zm38.103 8.489-3.237 25.914-15.69-11.768 10.529-17.548c2.865.999 5.665 2.131 8.398 3.402zm60.994-91.07v-33.032c9.109 0 16.516 7.407 16.516 16.516s-7.407 16.516-16.516 16.516zm-214.709-16.516c0-9.109 7.407-16.516 16.516-16.516v33.032c-9.109 0-16.516-7.407-16.516-16.516zm16.516-41.29v8.258c-3.237 0-6.309.611-9.266 1.486-4.682-10.587-7.251-22.049-7.251-33.66 0-46.006 37.434-83.439 83.439-83.439h64.339c46.014 0 83.448 37.434 83.448 83.439v6.772c0 9.381-1.635 18.795-4.748 27.665-3.667-1.404-7.606-2.263-11.768-2.263v-31.224l-6.251-1.561c-17.928-4.484-32.124-17.623-37.962-35.155l-5.756-17.251-15.666 5.227 5.756 17.251c3.592 10.793 9.654 20.282 17.466 27.945-26.715-5.434-48.401-24.303-57.105-50.424l-15.666 5.227c6.532 19.588 19.15 35.749 35.394 46.939h-2.213l-5.516-.785c-28.779-4.113-52.364-23.8-61.556-51.373l-15.666 5.227c3.807 11.413 9.769 21.595 17.185 30.423h-9.348c-22.767-.014-41.289 18.508-41.289 41.276zm82.58 123.871c-36.426 0-66.065-29.63-66.065-66.065v-57.806c0-13.659 11.115-24.774 24.774-24.774h27.557c11.57 7.969 24.931 13.477 39.498 15.558l6.103.867 67.229.083v66.073c0 36.435-29.638 66.065-66.073 66.065h-33.023zm-37.095 34.064 4.757 38.037c-10.05-3.65-20.819-5.764-32.066-5.954 6.54-12.866 15.954-23.791 27.309-32.083zm-28.969 213.678c-45.535 0-82.581-37.046-82.581-82.581s37.046-82.581 82.581-82.581 82.581 37.046 82.581 82.581-37.046 82.581-82.581 82.581z"/></g></g></svg>